<?xml version="1.0" encoding="UTF-8" standalone="no"?>
<svg
   height="495.94666"
   width="333.33362"
   version="1.0"
   id="svg2"
   sodipodi:version="0.32"
   inkscape:version="1.2.2 (732a01da63, 2022-12-09, custom)"
   sodipodi:docname="Blason_de_la_ville_d'Hirtzfelden_(68).svg"
   inkscape:export-filename="/Users/olivier/Desktop/Blason Rouge/Blason_Vide_3D.png"
   inkscape:export-xdpi="144"
   inkscape:export-ydpi="144"
   xmlns:inkscape="http://www.inkscape.org/namespaces/inkscape"
   xmlns:sodipodi="http://sodipodi.sourceforge.net/DTD/sodipodi-0.dtd"
   xmlns:xlink="http://www.w3.org/1999/xlink"
   xmlns="http://www.w3.org/2000/svg"
   xmlns:svg="http://www.w3.org/2000/svg"
   xmlns:rdf="http://www.w3.org/1999/02/22-rdf-syntax-ns#"
   xmlns:cc="http://creativecommons.org/ns#"
   xmlns:dc="http://purl.org/dc/elements/1.1/">
  <metadata
     id="metadata49">
    <rdf:RDF>
      <cc:Work
         rdf:about="">
        <dc:format>image/svg+xml</dc:format>
        <dc:type
           rdf:resource="http://purl.org/dc/dcmitype/StillImage" />
        <dc:title>Blason de Thèze( Alpes de Haute-Provence)</dc:title>
        <dc:date>12 decembre 2007</dc:date>
        <dc:creator>
          <cc:Agent>
            <dc:title>Aups alias MG05</dc:title>
          </cc:Agent>
        </dc:creator>
        <cc:license
           rdf:resource="http://creativecommons.org/licenses/GPL/2.0/" />
        <dc:language>fr</dc:language>
        <dc:subject>
          <rdf:Bag>
            <rdf:li>gabarit modèle blason projet wikipédia</rdf:li>
          </rdf:Bag>
        </dc:subject>
        <dc:source>Armorial des communes de Provence; Louis de Bresc</dc:source>
      </cc:Work>
      <cc:License
         rdf:about="http://creativecommons.org/licenses/GPL/2.0/">
        <cc:permits
           rdf:resource="http://web.resource.org/cc/Reproduction" />
        <cc:permits
           rdf:resource="http://web.resource.org/cc/Distribution" />
        <cc:requires
           rdf:resource="http://web.resource.org/cc/Notice" />
        <cc:permits
           rdf:resource="http://web.resource.org/cc/DerivativeWorks" />
        <cc:requires
           rdf:resource="http://web.resource.org/cc/ShareAlike" />
        <cc:requires
           rdf:resource="http://web.resource.org/cc/SourceCode" />
      </cc:License>
    </rdf:RDF>
  </metadata>
  <sodipodi:namedview
     inkscape:window-height="1031"
     inkscape:window-width="1920"
     inkscape:pageshadow="2"
     inkscape:pageopacity="0.0"
     guidetolerance="10.0"
     gridtolerance="10.0"
     objecttolerance="10.0"
     borderopacity="1.0"
     bordercolor="#666666"
     pagecolor="#ffffff"
     id="base"
     showgrid="false"
     height="660px"
     inkscape:zoom="1.1682331"
     inkscape:cx="148.94288"
     inkscape:cy="351.81336"
     inkscape:window-x="0"
     inkscape:window-y="25"
     inkscape:current-layer="svg2"
     inkscape:showpageshadow="false"
     showguides="true"
     inkscape:guide-bbox="true"
     inkscape:pagecheckerboard="0"
     inkscape:deskcolor="#d1d1d1"
     inkscape:window-maximized="1" />
  <desc
     id="desc4">Flag of Canton of Valais (Wallis)</desc>
  <defs
     id="defs6">
    <linearGradient
       id="linearGradient2893">
      <stop
         style="stop-color:white;stop-opacity:0.3137255;"
         offset="0"
         id="stop2895" />
      <stop
         id="stop2897"
         offset="0.19"
         style="stop-color:white;stop-opacity:0.25098041;" />
      <stop
         style="stop-color:#6b6b6b;stop-opacity:0.1254902;"
         offset="0.60000002"
         id="stop2901" />
      <stop
         style="stop-color:black;stop-opacity:0.1254902;"
         offset="1"
         id="stop2899" />
    </linearGradient>
    <linearGradient
       id="linearGradient2885">
      <stop
         id="stop2887"
         offset="0"
         style="stop-color:white;stop-opacity:1;" />
      <stop
         style="stop-color:white;stop-opacity:1;"
         offset="0.22857143"
         id="stop2891" />
      <stop
         id="stop2889"
         offset="1"
         style="stop-color:black;stop-opacity:1;" />
    </linearGradient>
    <linearGradient
       id="linearGradient2955">
      <stop
         id="stop2867"
         offset="0"
         style="stop-color:#fd0000;stop-opacity:1;" />
      <stop
         style="stop-color:#e77275;stop-opacity:0.65882355;"
         offset="0.5"
         id="stop2873" />
      <stop
         style="stop-color:black;stop-opacity:0.32291666;"
         offset="1"
         id="stop2959" />
    </linearGradient>
    <radialGradient
       inkscape:collect="always"
       xlink:href="#linearGradient2955"
       id="radialGradient2961"
       cx="225.52438"
       cy="218.90099"
       fx="225.52438"
       fy="218.90099"
       r="300"
       gradientTransform="matrix(-4.167939e-4,2.182867,-1.884232,-3.599562e-4,615.5972,-289.1214)"
       gradientUnits="userSpaceOnUse" />
    <polygon
       id="star"
       transform="scale(53)"
       points="0.58778525,0.80901699 -0.95105652,-0.30901699 0.95105652,-0.30901699 -0.58778525,0.80901699 0,-1 " />
    <clipPath
       id="clip">
      <path
         d="M 0,-200 V 600 H 300 V -200 Z"
         id="path10" />
    </clipPath>
    <radialGradient
       inkscape:collect="always"
       xlink:href="#linearGradient2955"
       id="radialGradient1911"
       gradientUnits="userSpaceOnUse"
       gradientTransform="matrix(-4.167939e-4,2.182867,-1.884232,-3.599562e-4,615.5972,-289.1214)"
       cx="225.52438"
       cy="218.90099"
       fx="225.52438"
       fy="218.90099"
       r="300" />
    <radialGradient
       inkscape:collect="always"
       xlink:href="#linearGradient2955"
       id="radialGradient2865"
       gradientUnits="userSpaceOnUse"
       gradientTransform="matrix(0,1.748721,-1.593162,-1.049767e-7,551.7876,-191.2898)"
       cx="225.52438"
       cy="218.90099"
       fx="225.52438"
       fy="218.90099"
       r="300" />
    <radialGradient
       inkscape:collect="always"
       xlink:href="#linearGradient2955"
       id="radialGradient2871"
       gradientUnits="userSpaceOnUse"
       gradientTransform="matrix(0,1.386237,-1.323286,-5.741131e-8,-158.0823,-109.5408)"
       cx="225.52438"
       cy="218.90099"
       fx="225.52438"
       fy="218.90099"
       r="300" />
    <radialGradient
       r="300"
       fy="226.33101"
       fx="221.44487"
       cy="226.33101"
       cx="221.44487"
       gradientTransform="matrix(1.353218,0,0,1.348928,-116.1294,-87.92342)"
       gradientUnits="userSpaceOnUse"
       id="radialGradient2054"
       xlink:href="#linearGradient2893"
       inkscape:collect="always" />
    <radialGradient
       r="300"
       fy="218.90099"
       fx="225.52438"
       cy="218.90099"
       cx="225.52438"
       gradientTransform="matrix(0,1.386237,-1.323286,-5.741131e-8,-158.0823,-109.5408)"
       gradientUnits="userSpaceOnUse"
       id="radialGradient2052"
       xlink:href="#linearGradient2955"
       inkscape:collect="always" />
    <radialGradient
       r="300"
       fy="218.90099"
       fx="225.52438"
       cy="218.90099"
       cx="225.52438"
       gradientTransform="matrix(0,1.748721,-1.593162,-1.049767e-7,551.7876,-191.2898)"
       gradientUnits="userSpaceOnUse"
       id="radialGradient2050"
       xlink:href="#linearGradient2955"
       inkscape:collect="always" />
    <radialGradient
       r="300"
       fy="218.90099"
       fx="225.52438"
       cy="218.90099"
       cx="225.52438"
       gradientTransform="matrix(-4.167939e-4,2.182867,-1.884232,-3.599562e-4,615.5972,-289.1214)"
       gradientUnits="userSpaceOnUse"
       id="radialGradient2048"
       xlink:href="#linearGradient2955"
       inkscape:collect="always" />
    <clipPath
       id="clipPath2044">
      <path
         id="path2046"
         d="M 0,-200 V 600 H 300 V -200 Z" />
    </clipPath>
    <polygon
       points="0.58778525,0.80901699 -0.95105652,-0.30901699 0.95105652,-0.30901699 -0.58778525,0.80901699 0,-1 "
       transform="scale(53)"
       id="polygon2042" />
    <radialGradient
       gradientUnits="userSpaceOnUse"
       gradientTransform="matrix(-4.167939e-4,2.182867,-1.884232,-3.599562e-4,615.5972,-289.1214)"
       r="300"
       fy="218.90099"
       fx="225.52438"
       cy="218.90099"
       cx="225.52438"
       id="radialGradient2040"
       xlink:href="#linearGradient2955"
       inkscape:collect="always" />
    <linearGradient
       id="linearGradient2032">
      <stop
         style="stop-color:#fd0000;stop-opacity:1;"
         offset="0"
         id="stop2034" />
      <stop
         id="stop2036"
         offset="0.5"
         style="stop-color:#e77275;stop-opacity:0.65882355;" />
      <stop
         id="stop2038"
         offset="1"
         style="stop-color:black;stop-opacity:0.32291666;" />
    </linearGradient>
    <linearGradient
       id="linearGradient2024">
      <stop
         style="stop-color:white;stop-opacity:1;"
         offset="0"
         id="stop2026" />
      <stop
         id="stop2028"
         offset="0.22857143"
         style="stop-color:white;stop-opacity:1;" />
      <stop
         style="stop-color:black;stop-opacity:1;"
         offset="1"
         id="stop2030" />
    </linearGradient>
    <linearGradient
       id="linearGradient2014">
      <stop
         id="stop2016"
         offset="0"
         style="stop-color:white;stop-opacity:0.3137255;" />
      <stop
         style="stop-color:white;stop-opacity:0.25098041;"
         offset="0.19"
         id="stop2018" />
      <stop
         id="stop2020"
         offset="0.60000002"
         style="stop-color:#6b6b6b;stop-opacity:0.1254902;" />
      <stop
         id="stop2022"
         offset="1"
         style="stop-color:black;stop-opacity:0.1254902;" />
    </linearGradient>
  </defs>
  <g
     inkscape:groupmode="layer"
     id="layer1"
     inkscape:label="Layer 1">
    <path
       style="display:inline;fill:#ffeeaa;fill-opacity:1;stroke:#000000;stroke-width:2.18228;stroke-miterlimit:4;stroke-dasharray:none;stroke-opacity:1;fill-rule:evenodd"
       d="m 256.7724,101.34645 c 0.31685,-0.83856 -0.55922,-4.311131 -5.54744,-4.099641 -2.7507,0.469088 -5.25938,0.156047 -7.83987,-1.697404 -2.64158,-1.541252 -4.82736,-2.977629 -6.77948,-6.361682 -1.33666,-1.938096 -1.40232,-4.278703 1.06861,-3.069294 1.00888,0.66973 1.82561,1.42127 2.82044,2.243223 2.69518,2.048252 5.77277,4.002263 9.09529,5.189769 1.98263,0.92517 5.0937,2.967415 10.53926,-0.590401 2.63046,-1.524716 4.59647,-4.798709 5.42507,-7.702346 0.61426,-2.917912 -0.68673,-5.392075 -1.33887,-7.829802 -1.25318,-2.835094 -2.13188,-5.628238 -4.62499,-7.367918 -1.00573,-1.536252 -0.22796,-2.194858 1.4802,-1.442718 2.89011,1.157374 3.95545,2.498435 5.40908,4.443543 1.86384,3.944847 3.57508,8.230039 4.42494,12.799439 1.14221,-0.386522 2.41066,-0.631589 3.54221,-1.060636 4.49298,-1.465946 8.09727,-3.548634 11.56337,-6.111025 3.26971,-2.341017 5.07919,-3.93666 6.47486,-6.385848 1.32533,-1.988358 2.21774,-5.000385 2.51571,-7.415565 0.0805,-2.428882 -0.47793,-4.57546 -0.63675,-7.107075 -0.073,-1.747769 1.10836,-3.835631 3.15863,-1.645568 1.03844,2.100147 1.02037,3.581483 0.90998,6.261158 -0.10155,1.524937 -1.17334,9.15801 -2.44611,13.336068 1.6619,0.79297 6.50297,-2.14148 8.1792,-3.687187 1.27153,-1.487216 3.12258,-3.57279 4.42849,-5.122012 1.03623,-1.734214 1.82346,-3.467774 2.61304,-6.120719 0.6276,-3.382808 0.50268,-5.642419 -2.42057,-9.764253 -2.79245,-3.881785 -6.1008,-6.712178 -9.14494,-10.211877 -0.82539,-1.968325 -0.7206,-3.919096 3.19921,-2.713219 1.78068,1.818708 3.50553,3.280561 5.139,5.299611 2.76767,2.451943 4.82525,5.502186 7.23095,8.140944 2.06219,2.530127 5.01771,1.323477 5.8905,-2.749504 0.74283,-3.687477 0.22987,-7.850721 -0.47526,-10.9402 -1.62975,-5.377306 -2.40521,-9.895487 -3.19965,-14.967239 0.43251,-1.771052 0.27082,-3.925951 3.26889,-1.295015 2.07132,3.240915 2.76285,5.542475 3.94411,10.90112 0.22571,4.423254 0.28719,8.340251 1.29319,12.899413 -0.12281,3.770095 2.08035,3.884256 3.8444,2.447381 1.95763,-1.988037 2.54715,-3.594674 3.23901,-5.247283 1.45651,-3.764596 1.88683,-6.960326 2.73591,-10.830226 0.84066,-1.399087 2.3806,-1.784723 2.88932,1.89939 -0.41572,5.240975 -1.72373,9.830721 -5.24692,15.916135 -1.73943,2.694192 0.3843,4.307577 3.00856,2.419123 3.24194,-2.092205 5.0719,-4.465399 7.49016,-6.677061 0.90934,-0.967673 1.85517,-2.194039 3.34385,-0.67787 0.34314,1.596386 -0.0579,2.354597 -3.07811,5.361257 -7.03899,5.450142 -11.8342,6.983499 -19.50326,10.754352 -6.13537,3.621091 -9.83307,5.935678 -15.74507,11.632136 -3.74874,3.002805 -5.75869,5.874221 -10.8338,8.855013 -4.0139,1.475425 -11.16723,2.841657 -16.74436,4.716278 -6.72488,2.071542 -9.41164,3.204359 -15.72881,11.977726 -2.95781,3.304879 -4.97483,3.794379 -5.44916,1.835065 l -3.39542,1.569924"
       id="path2395-3"
       transform="matrix(2.025186,0,0,1.839167,-445.34574,-35.525745)" />
    <path
       style="display:inline;fill:#ffeeaa;fill-opacity:1;stroke:#000000;stroke-width:2.38778;stroke-miterlimit:4;stroke-dasharray:none;stroke-opacity:1;fill-rule:evenodd"
       d="m 261.91826,100.52313 c 0.57091,-0.779934 0.77781,-4.910402 -4.20526,-6.734135 -2.85652,-0.623039 -5.2333,-1.995539 -7.20596,-5.069888 -2.12914,-2.760562 -3.84124,-5.219652 -4.7225,-9.696973 -0.72028,-2.654235 -0.0634,-5.222243 1.99982,-2.892169 0.78816,1.142345 1.36166,2.294415 2.08905,3.596249 2.02568,3.33303 4.45742,6.721168 7.36695,9.377996 1.66943,1.820492 4.10697,5.318197 10.57263,3.697388 3.06342,-0.572468 6.01109,-3.317469 7.7232,-6.1286 1.50521,-2.914862 0.98537,-6.13638 1.09399,-9.051242 -0.36143,-3.593657 -0.3666,-6.987629 -2.28819,-9.902491 -0.51791,-2.081766 0.45195,-2.476595 1.90413,-0.956926 2.49251,2.446125 3.12937,4.340526 3.9628,7.050517 0.62135,5.049791 0.9873,10.406238 0.41638,15.716655 1.24528,0.05057 2.57139,0.306657 3.81926,0.306657 4.88156,0.258032 9.07711,-0.519307 13.28431,-1.874303 3.94533,-1.195508 6.22124,-2.182904 8.35231,-4.267264 1.91966,-1.613028 3.7281,-4.515572 4.76648,-7.014859 0.82825,-2.603666 0.93946,-5.163895 1.56339,-7.977619 0.46682,-1.927465 2.27526,-3.707761 3.62141,-0.486242 0.3763,2.707398 -0.0983,4.308108 -1.03321,7.171752 -0.57028,1.613678 -3.98025,9.459038 -6.52319,13.470863 1.39399,1.544955 7.07148,0.352039 9.20061,-0.636005 1.7121,-1.091129 4.18004,-2.593293 5.94516,-3.737583 1.55628,-1.456135 2.86686,-3.014056 4.46324,-5.569098 1.66167,-3.414072 2.23517,-5.918545 0.62393,-11.596561 -1.55629,-5.363578 -3.94533,-9.79811 -5.86757,-14.850494 -0.20691,-2.476594 0.49785,-4.55123 3.99059,-1.628588 1.19485,2.707398 2.44467,5.004408 3.43261,7.8687 1.97268,3.80112 3.06083,7.959466 4.61905,11.814397 1.25305,3.595601 4.53889,3.502242 6.65509,-0.560152 1.86923,-3.697388 2.64704,-8.428203 2.90437,-12.072429 0.0511,-6.508517 0.67954,-11.732708 1.45995,-17.565673 0.97243,-1.744638 1.4774,-4.150566 3.62205,-0.06029 1.0429,4.370995 1.0151,7.154247 0.5276,13.457896 -1.14119,4.89484 -2.2882,9.172478 -2.702,14.536058 -1.28342,4.042295 0.85347,5.073129 3.03562,4.239385 2.54294,-1.352401 3.61947,-2.853918 4.81108,-4.363216 2.59662,-3.487331 4.00612,-6.779516 6.03633,-10.631206 1.26016,-1.172817 2.89726,-0.957574 2.26297,3.251342 -2.02567,5.518528 -4.73026,9.962785 -10.07993,15.118901 -2.54553,2.208837 -0.94915,4.834546 2.2203,3.864655 3.84124,-0.936827 6.37706,-2.759912 9.44308,-4.165477 1.19484,-0.676201 2.50543,-1.618216 3.50566,0.640543 -0.15387,1.874302 -0.78298,2.532351 -4.68758,4.553175 -8.62001,3.019241 -13.82032,2.709991 -22.54377,3.646818 -7.16522,1.405565 -11.52435,2.396204 -19.10921,6.146754 -4.62164,1.71676 -7.48851,4.006638 -13.41103,5.153522 -4.41216,-0.05057 -11.8858,-1.51189 -17.96221,-1.772516 -7.26867,-0.519308 -10.26679,-0.395477 -19.19973,6.528616 -3.93498,2.37026 -6.07446,2.0714 -5.93804,-0.2509 l -3.83154,0.30665"
       id="path2395"
       transform="matrix(2.025186,0,0,1.839167,-445.34574,-35.525745)" />
    <path
       sodipodi:nodetypes="ccccccccccccccccccccccccccccccccccccccccccccccccccccccccccccccccccccccccccccccccsccccccsccccccccccccccccccccccccccccccccccccccccccccccccccccccccccccccccccccccccccccccccccccccccccccccccccccccccccc"
       style="display:inline;fill:#aa4400;fill-opacity:1;stroke:#000000;stroke-width:1.95381;stroke-miterlimit:4;stroke-dasharray:none;stroke-opacity:1;fill-rule:evenodd"
       d="m 355.33198,216.28034 c 0.34282,3.52301 -0.054,8.41947 1.12794,12.03743 0.25448,1.65992 2.0977,3.26201 0.56662,5.81899 l -6.08624,10.473 -5.17309,9.255 -4.08959,8.93298 c -0.72111,3.32407 -2.29398,5.34048 -1.5295,10.1128 0.5518,2.55485 -0.41319,2.28165 -1.5168,2.41003 -2.24636,-0.16605 -1.93422,1.61005 -2.05643,2.72514 -0.3386,2.93841 -0.31162,4.90495 -1.71308,7.29217 -0.84913,2.17184 -9.48383,1.48963 -8.61777,-0.37294 1.16763,-1.95858 1.79403,-2.81214 2.34583,-5.11449 0.8904,-0.33155 2.99656,-0.42917 1.25439,-3.1994 l 2.50666,-6.44921 3.36055,-7.41418 4.89164,-11.708 c 1.57023,-4.51556 2.9262,-9.45392 3.86262,-14.22836 0.84913,-3.66359 0.85971,-5.019 0.30579,-8.59771 -0.72163,-3.74847 -1.44907,-7.20092 -3.53196,-10.69476 -1.90142,-2.94848 -3.1246,-7.43699 -6.45023,-7.42266 0.44652,-0.41644 1.48611,-0.2923 3.07539,-0.84349 1.84111,0.52201 3.93458,1.6578 6.89622,0.34588 4.4393,2.88695 8.26224,5.4938 10.57104,6.63754 z m -106.73882,-20.7285 c -0.39256,-2.53682 -2.02522,-7.40198 -2.8024,-11.07406 3.77956,-1.47371 6.81792,-5.01475 6.956,-7.26351 -2.70294,3.42327 -6.03439,6.70809 -9.36373,6.90914 -1.02478,-2.64822 -1.15704,-4.51344 -0.94859,-7.18871 0.14443,-0.81219 2.89128,-0.32944 5.49951,-2.51136 1.8099,-1.39467 2.26065,-3.20365 2.26912,-3.29278 -4.23455,5.31078 -8.67808,3.75696 -9.50446,5.70652 -1.02743,-2.15486 -0.69835,-3.43335 -0.6137,-5.73569 2.8516,-2.10129 8.61988,-2.70021 9.39441,-6.48635 -4.33137,4.38718 -8.23102,3.47951 -9.84729,5.48955 -0.63645,-1.75912 -0.42165,-3.34901 -0.77876,-5.03757 0.83855,-2.57183 9.99383,-4.90918 10.71705,-8.05713 -5.40217,3.75695 -9.45261,3.84024 -11.06041,6.79721 -0.51477,-2.24452 -0.44229,-4.39302 0.66767,-7.01684 1.76069,-2.80366 9.41346,-4.82006 9.36585,-8.55792 -2.50296,4.06358 -9.3558,5.59458 -9.72138,7.33354 -0.49995,-1.68909 -0.97134,-3.15431 -0.76448,-5.81898 0.0868,-1.39891 3.85998,-3.90019 5.41857,-4.67312 -1.80037,0.13687 -4.43294,1.44878 -6.85707,4.37074 -0.45869,-0.13475 -0.86818,-0.44562 -0.97981,-1.22703 0.16983,-2.46998 0.47139,-3.88322 2.38286,-6.3967 1.86809,-2.42913 3.27802,-3.54582 5.70003,-5.93091 2.61618,-3.13522 5.29055,-6.87573 7.22689,-10.99926 3.10607,0.62121 4.10228,-0.3671 4.01128,-1.72039 -1.65964,0.99892 -2.49872,1.12146 -3.45948,0.64455 -1.47342,-0.77081 -2.94895,-1.54161 -4.42501,-2.31454 -3.39918,-1.44878 -7.10679,-2.76441 -11.44239,-2.72091 -2.6331,-0.25463 -5.91271,0.46206 -7.73953,0.20743 -1.33745,0 -1.60992,-1.54427 -1.99665,-2.99888 1.42633,1.23127 5.14822,1.62914 5.86721,0.1183 -2.69077,0.31935 -4.01976,0.11193 -5.70585,-1.11086 -0.67772,-0.25463 -1.84323,-0.0186 -1.84323,-0.91351 -0.42377,-1.3639 -0.17988,-1.77609 0.15872,-3.22487 1.06234,-2.04505 1.71361,-3.27579 5.98942,-3.69648 7.18139,-0.0833 11.93018,-1.60421 17.07206,-3.18084 3.69544,-0.98035 5.83229,-2.5469 11.69739,-2.20526 0.53275,-1.18088 2.14267,-1.33048 3.31452,-1.01112 0.25448,2.55698 2.43894,1.65143 4.94772,0.57187 1.14699,1.10661 2.96323,1.1273 3.64307,2.53258 -1.21683,0.84508 -1.48771,1.22014 -2.76696,2.00155 1.67605,0.59681 2.39503,-0.42492 4.8874,-2.69384 0.29998,-0.13051 1.13271,-0.83712 1.34539,-1.00741 1.78344,-1.14958 3.12301,-2.639738 7.37184,-3.195165 2.2506,-0.424925 4.7033,-0.486993 8.4855,0.789375 -3.52561,3.19569 -4.44352,6.32667 -9.54361,8.41363 -1.47341,0.8472 -3.2013,1.44029 -5.10061,1.85885 -1.72948,0.29389 -3.14099,0.58832 -3.36425,1.4753 2.604,-0.55118 3.28807,-0.59044 3.69703,0.13475 1.1655,5.21793 2.55427,11.03267 3.09391,16.4018 0.63645,5.49538 0.5518,10.91862 1.40093,16.37262 0.55181,2.55486 1.97972,7.25715 4.57368,9.85551 3.05846,4.04714 7.28243,5.45825 12.59572,6.3951 7.64854,0.76656 14.95848,1.95381 22.99111,2.42224 6.84068,0 13.72685,0.079 20.61037,0.12254 7.22318,0.25464 12.56134,2.0058 18.04393,5.33199 2.71987,1.74639 5.10855,3.46465 7.40464,6.23489 2.29398,2.76865 4.00283,5.63862 5.06728,9.26083 0.59307,2.72727 -0.20051,4.42644 -1.00837,6.72878 -0.45076,0.9846 -1.06869,1.61854 -1.75858,1.99784 0.24389,-3.3819 -0.83326,-4.85932 -2.1596,-5.54154 1.11366,2.34797 1.37607,4.07844 1.01843,5.96806 0,2.76864 0.58513,6.18767 1.09356,8.99982 0.67983,3.96226 1.7464,7.28208 3.57534,10.77592 2.67596,5.11183 4.70118,7.7834 7.8882,11.02206 1.74218,1.53366 3.24469,2.23391 2.94684,4.83227 -0.50842,2.72726 -0.68407,4.87205 -0.72745,8.2375 -0.38039,4.6832 -0.20686,9.29372 -0.25025,13.98116 l 0.2111,11.92603 c 0.0413,3.23654 -0.11587,6.56698 0.6465,9.84702 0.72163,2.55539 -0.39679,2.66891 -1.54325,3.64927 -1.86862,2.21534 -1.01896,6.62692 -3.48435,9.56745 -0.701,0.94693 -4.26153,1.80102 -6.84702,1.86097 -0.36346,-0.71882 0.18834,-2.08484 0.4116,-2.56971 -0.92584,-0.16127 -1.40358,1.26416 -1.78397,2.50976 -1.20254,-0.15755 -1.82259,-0.63235 -1.09937,-1.55647 l 3.32722,-4.00575 c 0.76078,0.15968 2.43894,0.0249 2.90609,-0.71458 -0.47985,-0.002 -1.30623,0.0663 -1.54589,-0.43712 0.54545,-0.83553 1.34909,-1.98776 1.53531,-3.02594 0.7211,-2.68324 0.89675,-5.74206 0.93802,-8.5123 l -0.17353,-18.02458 c -0.3386,-4.55906 -0.51425,-9.029 -1.49194,-13.46128 -1.23164,-4.17551 -2.84155,-8.03008 -5.09426,-11.31012 -2.59131,-3.19569 -5.85875,-5.89803 -8.66538,-7.98658 -9.00027,-5.68636 -17.84077,-11.21304 -27.24207,-19.63463 1.81889,3.49595 6.53488,6.67255 9.95099,9.68787 -0.95495,0.79362 -3.02355,0.6297 -5.68363,-0.9326 -4.02769,1.56442 -8.06385,2.65671 -12.12857,3.23282 -4.88582,1.02174 -8.54582,1.05463 -12.88142,1.56655 -3.27167,0.16976 -6.62164,0.0541 -9.85152,0.0122 -5.73706,0 -11.0731,0.64668 -16.81017,0.30504 -0.8904,-0.27798 -1.9776,-0.54323 -2.90768,-0.70291 0.51054,-2.29173 0.57455,-5.29432 0.13649,-6.028 -0.24601,1.50661 -1.0581,4.01213 -1.41786,5.8731 l -3.28966,15.23047 c -1.40147,5.28425 -0.4899,10.26611 -0.78776,15.21031 -0.66714,4.13202 -1.77498,4.76861 -2.2998,7.28209 -0.29786,3.02328 -0.24813,6.60199 -0.0354,10.1807 0.0831,4.72882 1.18879,8.55845 2.0813,12.94776 0.1693,0.80794 -0.0122,1.59731 0.92161,2.57767 -1.12635,0.78725 -1.86174,0.44349 -2.79816,0.87054 l -0.84914,7.92822 c -0.84966,1.7883 -2.60612,1.99148 -4.56097,2.67316 -1.80831,0.61537 -3.34416,1.06523 -4.95989,0.87054 0.11957,-0.34429 0.874,-1.48803 0.62376,-2.26096 -0.63645,0.90131 -1.45702,2.25884 -1.81625,1.83604 -0.56661,-0.052 -0.86394,-0.13899 -1.43638,-0.70874 2.08289,-2.22383 3.50075,-3.38402 4.98898,-6.83647 1.41734,-0.14483 3.22142,-2.38298 2.8643,-2.43921 -0.95071,0.62173 -1.90353,1.44241 -2.41619,1.27477 l 0.73592,-2.19677 c 0.8904,-5.24075 2.15325,-9.41626 2.02522,-15.59545 0.12591,-6.1776 -2.25272,-6.81791 -1.74218,-17.76942 l -0.22538,-5.82535 c -0.25394,-4.64394 -0.32007,-9.28788 -0.53117,-13.93341 -0.25394,-2.89703 -0.21691,-4.30018 -2.93836,-12.48358 -0.60789,-1.39679 -1.65541,-2.79517 -1.72366,-4.4885 -0.66979,1.20634 -0.11375,2.90551 0.19416,4.20893 -0.84966,-0.008 -1.63055,0.16976 -2.41778,-0.54694 -4.55304,-2.5156 -11.68258,-7.65502 -12.88141,-14.6448 z m -0.56239,0.35861 c 1.13271,5.80201 6.74756,11.25389 12.26983,14.33977 -4.32132,1.20794 -9.80444,2.05991 -14.24108,2.27953 -7.26657,0.72307 -12.27406,1.80262 -16.09913,4.2726 -4.16418,4.68744 -4.05679,10.42155 -3.07698,15.57741 0.67772,2.72462 1.55384,5.98238 4.69906,7.55954 1.98025,0.26896 1.5131,0.19893 0.88881,2.43868 -0.46715,3.19569 1.14276,4.61901 2.41778,5.17231 0.38251,0.21167 0.91156,0.25941 1.20889,1.06948 0.19681,3.66995 0.16983,6.17123 -1.10308,8.98284 -0.66343,0.79203 -1.18032,0.0398 -1.7919,-0.17188 l -3.11878,-2.99835 c -0.16506,-1.49387 -0.037,-1.93524 0.19628,-2.99622 -0.64862,0.0223 -0.92373,0.73314 -0.98986,2.16547 -2.53576,-2.99676 -4.8419,-7.34203 -6.53647,-11.1653 -0.89516,-3.32407 -0.15501,-6.16327 -0.5809,-9.61519 -0.21056,-2.34373 -1.10942,-4.66888 -1.15334,-7.5659 l -0.13808,-9.80989 c 0.63645,-3.36545 2.20722,-4.66039 6.20158,-6.96061 4.67472,-2.72727 11.7778,-5.18504 16.28323,-8.21045 1.69879,-1.27637 3.0008,-1.03605 4.67261,-4.36596 z m 104.95961,33.79404 c 0.13862,3.09596 -0.25236,3.89753 -1.56653,7.52823 1.24011,-1.03818 3.26109,-4.66675 1.56653,-7.52823 z m 24.84281,-0.89972 c 1.59139,0.64667 2.02522,2.39146 2.60612,6.17547 0.22485,-1.53153 0.34282,-7.95316 -2.60612,-6.17547 z m -96.49898,-123.8989 c -0.0286,-0.0271 0.88881,-0.78142 1.51098,-0.8228 3.4907,-1.71562 3.4616,-3.19569 0.15713,-2.30446 -1.67181,0.24031 -7.59722,4.78717 -8.90716,5.193 -1.06869,0.98247 1.4258,0.73579 1.86386,0.53686 -0.54546,0.27957 -1.07874,0.6403 -1.77921,0.73579 -1.86809,0.55331 -1.5295,-1.3204 -0.67772,-1.70341 2.76061,-0.63819 5.86298,-3.749 9.26268,-5.32563 2.59131,-0.89335 3.99436,-0.0414 3.1865,1.31987 -0.67772,1.27637 -2.2506,1.66204 -3.48435,2.00155 -0.7793,0.40848 -0.97558,0.62386 -1.06816,1.1273 -0.2111,-0.27957 -0.31215,-0.24615 -0.0624,-0.75807 z m -51.15056,5.49962 c 0.7502,-0.83924 0.73169,-1.38459 0.0476,-1.23286 -1.15546,0.76656 -2.22362,1.48326 -3.23676,2.27104 -0.71052,-0.23024 -0.59518,0.86417 -0.35129,1.17716 -0.64439,0.13846 -0.73962,-0.49972 -0.35711,-1.52145 1.44432,-0.59468 2.46328,-1.53313 3.7383,-2.30022 1.99612,-0.3809 1.10361,1.2769 0.15924,1.60633 z"
       id="path2397"
       transform="matrix(2.025186,0,0,1.839167,-445.34574,-35.525745)" />
    <path
       sodipodi:nodetypes="czc"
       id="path4457"
       d="m 248.89036,108.97582 c 4.20897,-7.15525 12.76721,-0.8418 12.76721,-0.8418 0,0 -5.12091,4.98062 -12.76721,0.8418 z"
       style="display:inline;fill:#c8b7b7;fill-opacity:1;stroke:#000000;stroke-width:1.95381;stroke-miterlimit:4;stroke-dasharray:none;stroke-opacity:1;fill-rule:evenodd;stroke-linecap:butt;stroke-linejoin:miter"
       transform="matrix(2.025186,0,0,1.839167,-445.34574,-35.525745)" />
    <path
       id="path4459"
       d="m 254.92323,108.27432 c 0,0.42595 -0.15713,0.77165 -0.35075,0.77165 -0.19361,0 -0.35074,-0.3457 -0.35074,-0.77165 0,-0.42594 0.15713,-0.77164 0.35074,-0.77164 0.19362,0 0.35075,0.3457 0.35075,0.77164 z"
       style="display:inline;fill:#ffff00;fill-opacity:1;stroke:#000000;stroke-width:1.95381;stroke-miterlimit:4;stroke-dasharray:none;stroke-opacity:1;fill-rule:nonzero;stroke-linecap:square;stroke-linejoin:miter;stroke-dashoffset:0"
       transform="matrix(2.025186,0,0,1.839167,-445.34574,-35.525745)" />
  </g>
</svg>
